<?xml version="1.0" standalone="no"?>
<!DOCTYPE svg PUBLIC "-//W3C//DTD SVG 20010904//EN"
 "http://www.w3.org/TR/2001/REC-SVG-20010904/DTD/svg10.dtd">
<svg version="1.0" xmlns="http://www.w3.org/2000/svg"
 width="275.000000pt" height="275.000000pt" viewBox="0 0 275.000000 275.000000"
 preserveAspectRatio="xMidYMid meet">
<metadata>
Created by potrace 1.14, written by Peter Selinger 2001-2017
</metadata>
<g transform="translate(0.000000,275.000000) scale(0.100000,-0.100000)"
fill="#000000" stroke="none">
<path d="M0 1375 l0 -1375 1375 0 1375 0 0 1375 0 1375 -1375 0 -1375 0 0
-1375z m2061 719 c41 -21 52 -61 47 -172 -9 -168 -68 -304 -194 -448 l-54 -61
0 -248 0 -249 -162 -163 c-176 -177 -197 -190 -257 -159 -17 9 -37 26 -45 39
-8 12 -25 95 -37 183 l-22 162 -181 180 -181 179 -160 22 c-90 13 -170 29
-183 37 -30 20 -55 78 -47 113 4 17 66 87 170 191 l165 165 252 3 253 4 45 42
c120 112 253 174 420 195 74 10 133 5 171 -15z m-1117 -950 c9 -8 16 -19 16
-23 0 -14 -25 -38 -71 -69 -26 -17 -61 -53 -78 -79 -34 -52 -71 -158 -71 -205
l0 -31 51 7 c117 16 216 73 269 155 35 55 52 66 81 51 61 -33 -44 -181 -172
-243 -96 -47 -278 -74 -307 -45 -18 18 -14 116 8 203 31 121 92 211 179 267
51 32 73 35 95 12z"/>
<path d="M1820 2000 c-158 -42 -179 -58 -475 -351 l-270 -268 152 -153 153
-153 259 259 c180 180 270 278 295 320 51 86 79 183 80 280 l1 81 -60 2 c-35
1 -92 -6 -135 -17z"/>
<path d="M817 1632 c-123 -123 -154 -162 -129 -162 5 0 73 -9 153 -20 l144
-20 170 170 170 170 -185 0 -185 0 -138 -138z"/>
<path d="M1597 1152 l-167 -167 20 -140 c11 -77 20 -146 20 -152 0 -30 33 -5
163 125 l137 138 -2 182 -3 182 -168 -168z"/>
</g>
</svg>
